# File created by Blade
# Date/Time:  Thu Sep 25 17:33:50 2014
# Frame Rate: 120.000 fps
#------------------------------------------------------
:FULLY-SPECIFIED
:DEGREES
628
root -6.867509 33.747442 -2.904582 26.900913 5.137914 34.459214
Spine -4.788030 -6.953719 -16.304172
Head -20.730503 43.089051 -15.237134
LeftShoulder 5.540507 6.743304 14.686707
LeftArm 74.829759 32.154865 -42.452657
LeftForeArm 33.175701 -0.000000 112.204378
LeftHand -34.015744 -0.000000 55.457815
LeftHandThumb1 -26.253704 0.000000 33.147579
RightShoulder -11.806912 14.279105 -23.708863
RightArm 14.861461 -32.578196 75.746192
RightForeArm -30.847144 0.000000 129.188829
RightHand 3.742332 -0.000000 -49.413752
RightHandThumb1 -24.326973 -0.000000 -32.862282
LeftUpLeg -56.502762 18.213726 14.641528
LeftLeg 82.076871 -0.000000 -0.000000
LeftFoot -4.146296 12.079500 -25.265699
LeftToeBase -1.711787 -0.000000 0.000000
RightUpLeg -36.199428 -9.941250 -28.646747
RightLeg 32.399940 -0.000000 -0.000000
RightFoot -13.202135 -19.715938 -9.929850
RightToeBase -1.118095 -0.000000 0.000000
629
root -6.863756 33.732617 -2.920925 26.808980 5.391952 34.108111
Spine -4.687792 -6.887410 -16.164118
Head -20.617176 42.884109 -14.823034
LeftShoulder 5.519880 6.608072 14.853380
LeftArm 74.714596 32.316047 -42.858215
LeftForeArm 33.226880 0.000000 112.083615
LeftHand -34.097920 0.000000 55.650917
LeftHandThumb1 -26.253704 0.000000 33.147579
RightShoulder -11.752548 14.470694 -23.694158
RightArm 14.836910 -32.473795 75.689957
RightForeArm -30.844628 -0.000000 129.167518
RightHand 3.555994 -0.000000 -49.619228
RightHandThumb1 -24.326973 -0.000000 -32.862282
LeftUpLeg -57.776073 18.681555 13.258936
LeftLeg 85.242061 -0.000000 -0.000000
LeftFoot -4.629079 11.777728 -25.001587
LeftToeBase -1.604296 -0.000000 0.000000
RightUpLeg -36.126522 -10.118193 -28.123883
RightLeg 32.334593 -0.000000 -0.000000
RightFoot -13.129321 -19.803492 -10.045481
RightToeBase -1.111621 -0.000000 0.000000
630
root -6.858170 33.716595 -2.933168 26.721432 5.556789 33.738140
Spine -4.675452 -6.685479 -16.052180
Head -20.291273 42.673642 -14.249312
LeftShoulder 5.569378 6.578728 14.966597
LeftArm 74.670115 32.347989 -43.115316
LeftForeArm 33.304190 -0.000000 111.953336
LeftHand -34.064962 -0.000000 55.376586
LeftHandThumb1 -26.253704 0.000000 33.147579
RightShoulder -11.758598 14.524956 -23.708811
RightArm 14.906837 -32.452660 75.562165
RightForeArm -31.080270 -0.000000 129.060404
RightHand 3.204624 0.000000 -49.771943
RightHandThumb1 -24.326973 -0.000000 -32.862282
LeftUpLeg -58.965230 19.168370 11.831963
LeftLeg 88.335285 -0.000000 -0.000000
LeftFoot -5.043162 11.253411 -24.625112
LeftToeBase -1.832783 -0.000000 0.000000
RightUpLeg -36.085019 -10.184614 -27.663235
RightLeg 32.299691 -0.000000 -0.000000
RightFoot -13.019290 -19.795257 -10.461169
RightToeBase -0.968521 -0.000000 0.000000
631
root -6.854288 33.699004 -2.943043 26.637783 5.669263 33.364053
Spine -4.693450 -6.603393 -15.994278
Head -19.985504 42.532753 -13.582541
LeftShoulder 5.473238 6.551863 15.139740
LeftArm 74.533403 32.420833 -43.458658
LeftForeArm 33.356878 0.000000 111.847390
LeftHand -33.943317 -0.000000 55.527463
LeftHandThumb1 -26.253704 0.000000 33.147579
RightShoulder -11.675581 14.673815 -23.678377
RightArm 14.917549 -32.411610 75.537356
RightForeArm -31.045031 -0.000000 128.945770
RightHand 3.067456 -0.000000 -49.777465
RightHandThumb1 -24.326973 -0.000000 -32.862282
LeftUpLeg -60.110854 19.645043 10.308180
LeftLeg 91.297861 -0.000000 -0.000000
LeftFoot -5.416161 10.753764 -24.476731
LeftToeBase -2.015850 -0.000000 0.000000
RightUpLeg -36.100515 -10.300053 -27.171693
RightLeg 32.268714 -0.000000 -0.000000
RightFoot -12.963412 -19.695005 -10.840292
RightToeBase -1.107558 -0.000000 0.000000
632
root -6.847524 33.683867 -2.946254 26.558889 5.701302 32.984489
Spine -4.749415 -6.381315 -15.959032
Head -19.690049 42.338187 -12.962680
LeftShoulder 5.398938 6.520641 15.283949
LeftArm 74.414323 32.500105 -43.733479
LeftForeArm 33.281524 -0.000000 111.779360
LeftHand -34.053451 -0.000000 55.584550
LeftHandThumb1 -26.253704 0.000000 33.147579
RightShoulder -11.688796 14.733919 -23.678029
RightArm 14.964815 -32.388536 75.571828
RightForeArm -31.067525 0.000000 128.808154
RightHand 2.869119 -0.000000 -49.788919
RightHandThumb1 -24.326973 -0.000000 -32.862282
LeftUpLeg -61.195389 20.125772 8.688761
LeftLeg 94.113718 -0.000000 -0.000000
LeftFoot -5.722119 10.164802 -24.277630
LeftToeBase -1.850119 -0.000000 0.000000
RightUpLeg -36.106593 -10.215489 -26.756408
RightLeg 32.184892 -0.000000 -0.000000
RightFoot -12.859995 -19.823625 -11.109232
RightToeBase -1.091516 -0.000000 0.000000
633
root -6.841410 33.670452 -2.946109 26.493604 5.703232 32.610956
Spine -4.880477 -6.050476 -15.961830
Head -19.207270 42.066123 -12.241172
LeftShoulder 5.446560 6.579560 15.429484
LeftArm 74.304126 32.508454 -43.980455
LeftForeArm 33.116266 0.000000 111.706053
LeftHand -33.981515 0.000000 55.646290
LeftHandThumb1 -26.253704 0.000000 33.147579
RightShoulder -11.813397 14.734625 -23.678873
RightArm 15.078553 -32.322256 75.612171
RightForeArm -31.038400 -0.000000 128.592880
RightHand 2.947392 -0.000000 -49.652385
RightHandThumb1 -24.326973 -0.000000 -32.862282
LeftUpLeg -62.231351 20.543295 6.985306
LeftLeg 96.771237 -0.000000 -0.000000
LeftFoot -6.041299 9.536109 -24.559221
LeftToeBase -1.644110 -0.000000 0.000000
RightUpLeg -36.166085 -10.282398 -26.282940
RightLeg 32.110780 -0.000000 -0.000000
RightFoot -12.816779 -19.675930 -11.223201
RightToeBase -1.110879 -0.000000 0.000000
634
root -6.835889 33.658842 -2.944605 26.400634 5.673830 32.271334
Spine -4.986696 -5.997388 -15.969758
Head -18.863789 42.029172 -11.739893
LeftShoulder 5.168420 6.751793 15.505691
LeftArm 74.203432 32.456352 -44.134626
LeftForeArm 32.927460 -0.000000 111.662370
LeftHand -33.990860 -0.000000 55.303847
LeftHandThumb1 -26.253704 0.000000 33.147579
RightShoulder -11.594423 14.845872 -23.631107
RightArm 15.049682 -32.249657 75.821300
RightForeArm -30.853124 -0.000000 128.431509
RightHand 3.075856 -0.000000 -49.261346
RightHandThumb1 -24.326973 -0.000000 -32.862282
LeftUpLeg -63.173936 20.869706 5.185249
LeftLeg 99.244720 -0.000000 -0.000000
LeftFoot -6.230194 8.942507 -24.495117
LeftToeBase -1.144934 -0.000000 0.000000
RightUpLeg -36.193445 -10.179482 -25.944985
RightLeg 32.123851 -0.000000 -0.000000
RightFoot -12.794920 -19.844917 -11.307188
RightToeBase -1.031686 -0.000000 0.000000
